<?xml version="1.0" standalone="no"?>
<!DOCTYPE svg PUBLIC "-//W3C//DTD SVG 20010904//EN"
 "http://www.w3.org/TR/2001/REC-SVG-20010904/DTD/svg10.dtd">
<svg version="1.0" xmlns="http://www.w3.org/2000/svg"
 width="700.000000pt" height="700.000000pt" viewBox="0 0 700.000000 700.000000"
 preserveAspectRatio="xMidYMid meet">
<metadata>
Created by potrace 1.11, written by Peter Selinger 2001-2013
</metadata>
<g transform="translate(0.000000,700.000000) scale(0.100000,-0.100000)"
fill="#000000" stroke="none">
<path d="M3345 6464 c-615 -36 -1155 -225 -1635 -573 -975 -706 -1437 -1924
-1174 -3098 55 -247 126 -444 246 -684 380 -762 1061 -1328 1873 -1558 298
-84 468 -106 820 -106 319 0 416 10 665 67 1067 242 1924 1046 2230 2093 88
302 115 504 114 855 0 234 -3 297 -23 420 -106 685 -397 1253 -887 1730 -482
470 -1091 761 -1744 834 -143 16 -385 26 -485 20z m45 -1733 l0 -1310 23 -24
c12 -14 103 -73 202 -132 189 -113 463 -278 1185 -715 239 -145 525 -317 635
-383 110 -66 203 -123 208 -127 10 -9 -149 -221 -246 -330 -144 -160 -352
-334 -545 -457 -228 -144 -569 -283 -827 -336 -219 -45 -289 -52 -550 -52
-282 0 -393 13 -628 72 -465 116 -847 334 -1198 683 -296 295 -494 610 -626
995 -256 746 -154 1575 273 2238 133 205 360 459 549 612 214 173 531 350 778
434 231 79 511 134 705 139 l62 2 0 -1309z m1327 859 c35 -19 63 -39 63 -44 0
-5 -77 -143 -171 -306 l-172 -297 -73 41 c-52 29 -72 45 -68 56 17 46 339 590
348 588 6 -2 39 -19 73 -38z m900 -902 c23 -40 39 -76 35 -80 -4 -4 -140 -84
-302 -177 l-294 -170 -45 77 c-24 42 -40 77 -35 79 5 2 140 80 299 173 160 92
292 169 295 169 3 1 25 -32 47 -71z m331 -1235 l-3 -88 -347 -3 -348 -2 0 90
0 90 350 0 351 0 -3 -87z"/>
<path d="M2243 5594 c-34 -19 -65 -39 -68 -43 -6 -11 334 -601 347 -601 5 0
40 18 78 40 l69 40 -126 218 c-69 119 -146 254 -172 299 -25 45 -50 83 -56 83
-5 0 -38 -16 -72 -36z"/>
<path d="M1357 4723 c-42 -66 -59 -105 -50 -113 13 -13 566 -333 583 -337 10
-3 29 20 57 69 23 40 41 73 40 74 -15 10 -584 337 -593 341 -7 3 -23 -12 -37
-34z"/>
<path d="M1004 3527 c-3 -8 -4 -47 -2 -88 l3 -74 350 0 350 0 3 88 3 87 -351
0 c-284 0 -352 -3 -356 -13z"/>
<path d="M1568 2476 l-296 -171 36 -68 c20 -38 43 -71 49 -74 15 -6 602 328
603 342 0 16 -74 138 -85 140 -6 2 -144 -75 -307 -169z"/>
<path d="M2457 1868 c-179 -306 -297 -511 -295 -513 25 -16 151 -85 153 -83 8
11 345 598 345 602 0 5 -135 86 -144 86 -3 0 -30 -42 -59 -92z"/>
<path d="M4362 1918 c-56 -31 -72 -44 -67 -57 7 -19 325 -572 336 -585 4 -4
41 11 83 35 l75 43 -18 30 c-10 17 -87 150 -171 296 -84 146 -155 268 -159
272 -3 4 -39 -11 -79 -34z"/>
<path d="M3390 1330 l0 -350 90 0 90 0 0 350 0 350 -90 0 -90 0 0 -350z"/>
</g>
</svg>
